<?xml version="1.0" encoding="utf-8"?>
<!-- Generator: Adobe Illustrator 27.5.0, SVG Export Plug-In . SVG Version: 6.00 Build 0)  -->
<svg version="1.1" xmlns="http://www.w3.org/2000/svg" xmlns:xlink="http://www.w3.org/1999/xlink" x="0px" y="0px"
	 viewBox="0 0 750 500" style="enable-background:new 0 0 750 500;" xml:space="preserve">
<g id="BACKGROUND">
	<rect style="fill:#EBF5F8;" width="750" height="500"/>
</g>
<g id="OBJECTS">
	<g>
		<linearGradient id="SVGID_1_" gradientUnits="userSpaceOnUse" x1="328.4978" y1="-29.9517" x2="404.1058" y2="366.715">
			<stop  offset="0" style="stop-color:#0BDEA6"/>
			<stop  offset="0.1021" style="stop-color:#08D9B8"/>
			<stop  offset="0.3183" style="stop-color:#02CFDA"/>
			<stop  offset="0.4357" style="stop-color:#00CBE7"/>
			<stop  offset="0.4882" style="stop-color:#2AD3EA"/>
			<stop  offset="0.559" style="stop-color:#5DDCEE"/>
			<stop  offset="0.6313" style="stop-color:#88E4F1"/>
			<stop  offset="0.7039" style="stop-color:#ACEAF3"/>
			<stop  offset="0.7767" style="stop-color:#C8EFF5"/>
			<stop  offset="0.85" style="stop-color:#DBF3F7"/>
			<stop  offset="0.9241" style="stop-color:#E7F5F8"/>
			<stop  offset="1" style="stop-color:#EBF5F8"/>
		</linearGradient>
		<path style="opacity:0.5;fill:url(#SVGID_1_);" d="M250.123,102.584c32.164,9.407,60.945,29.975,94.174,34.314
			c69.036,9.014,125.877-50.544,192.532-60.289c113.416-16.582,195.766,107.516,136.56,205.567
			c-10.613,17.577-25.373,33.148-31.11,52.863c-3.491,11.995-3.397,24.861-7.391,36.698c-10.308,30.546-46.324,46.481-78.401,43.266
			c-65.813-6.595-107.345-69.465-166.378-94.504c-44.703-18.96-98.649-14.354-139.49,11.91
			c-26.966,17.342-75.622,71.065-122.539,47.813c-31.892-15.805-63.845-65.958-62.288-124.445
			C69.561,114.258,181.064,82.385,250.123,102.584z"/>
		
			<line style="fill:none;stroke:#072359;stroke-width:2;stroke-linecap:round;stroke-miterlimit:10;" x1="78.382" y1="443.304" x2="671.857" y2="443.304"/>
		<g>
			<g>
				<g>
					<path style="fill:#072359;" d="M584.706,442.744h-53.348c-7.649,0-13.872-6.22-13.872-13.866v-105.26
						c0-0.74,0.6-1.34,1.34-1.34c0.74,0,1.34,0.6,1.34,1.34v105.26c0,6.168,5.02,11.186,11.192,11.186h53.348
						c6.171,0,11.192-5.021,11.192-11.191V323.617c0-0.74,0.6-1.34,1.34-1.34s1.34,0.6,1.34,1.34v105.255
						C598.577,436.521,592.354,442.744,584.706,442.744z"/>
				</g>
				<g>
					<path style="fill:#5DE4E3;" d="M587.634,442.971h-59.206c-3.885,0-7.585-1.608-10.421-4.528
						c-3.353-3.453-5.189-8.414-5.037-13.612l3.279-145.475c0.09-3.992,3.412-7.24,7.405-7.24h68.755
						c3.993,0,7.314,3.248,7.404,7.24l3.28,145.488c0.152,5.186-1.685,10.146-5.037,13.599
						C595.219,441.363,591.518,442.971,587.634,442.971z M523.654,275.69c-2.067,0-3.786,1.681-3.832,3.747l-3.279,145.488
						c-0.124,4.25,1.344,8.265,4.029,11.029c2.157,2.221,4.947,3.444,7.857,3.444h59.206c2.91,0,5.701-1.223,7.857-3.444
						c2.685-2.764,4.154-6.78,4.03-11.017l-3.279-145.5c-0.047-2.066-1.766-3.747-3.833-3.747H523.654z"/>
				</g>
				<path style="fill:#5DE4E3;" d="M600.707,279.336c-0.1-4.474-3.823-8.114-8.298-8.114h-68.755c-4.475,0-8.197,3.64-8.298,8.114
					l-0.643,28.661h5.358l0.071-3.144c0.083-3.677,3.087-6.615,6.765-6.615h62.247c3.678,0,6.682,2.938,6.765,6.615l0.071,3.144
					h5.358L600.707,279.336z M585.737,287.602h-55.41c-1.788,0-3.238-1.45-3.238-3.238s1.45-3.238,3.238-3.238h55.41
					c1.788,0,3.238,1.45,3.238,3.238S587.525,287.602,585.737,287.602z"/>
				<rect x="516.535" y="343.947" style="fill:#5DE4E3;" width="82.993" height="7.012"/>
			</g>
			<g>
				<g>
					<g>
						<path style="fill:#072359;" d="M340.818,442.744H287.47c-7.649,0-13.872-6.22-13.872-13.866v-105.26
							c0-0.74,0.6-1.34,1.34-1.34c0.74,0,1.34,0.6,1.34,1.34v105.26c0,6.168,5.02,11.186,11.191,11.186h53.348
							c6.171,0,11.191-5.021,11.191-11.191V323.617c0-0.74,0.6-1.34,1.34-1.34c0.74,0,1.34,0.6,1.34,1.34v105.255
							C354.69,436.521,348.467,442.744,340.818,442.744z"/>
					</g>
					<g>
						<path style="fill:#5DE4E3;" d="M343.747,442.971h-59.206c-3.884,0-7.585-1.608-10.421-4.528
							c-3.353-3.453-5.189-8.414-5.037-13.612l3.279-145.475c0.09-3.992,3.412-7.24,7.405-7.24h68.755
							c3.993,0,7.314,3.248,7.404,7.24l3.28,145.488c0.152,5.186-1.685,10.146-5.037,13.599
							C351.332,441.363,347.631,442.971,343.747,442.971z M279.767,275.69c-2.067,0-3.786,1.681-3.833,3.747l-3.279,145.488
							c-0.124,4.25,1.344,8.265,4.028,11.029c2.157,2.221,4.948,3.444,7.858,3.444h59.206c2.909,0,5.7-1.223,7.857-3.444
							c2.685-2.764,4.154-6.78,4.03-11.017l-3.279-145.5c-0.047-2.066-1.766-3.747-3.833-3.747H279.767z"/>
					</g>
					<path style="fill:#5DE4E3;" d="M356.819,279.336c-0.1-4.474-3.823-8.114-8.298-8.114h-68.755c-4.475,0-8.197,3.64-8.298,8.114
						l-0.643,28.661h5.358l0.071-3.144c0.083-3.677,3.087-6.615,6.765-6.615h62.247c3.678,0,6.683,2.938,6.765,6.615l0.071,3.144
						h5.358L356.819,279.336z M341.85,287.602h-55.411c-1.788,0-3.238-1.45-3.238-3.238s1.45-3.238,3.238-3.238h55.411
						c1.788,0,3.238,1.45,3.238,3.238S343.638,287.602,341.85,287.602z"/>
					<rect x="272.648" y="343.947" style="fill:#5DE4E3;" width="82.993" height="7.012"/>
				</g>
				<g>
					<g>
						<path style="fill:#B78879;" d="M326.434,206.076c-0.466,3.293,0.407,6.14,1.951,6.359c1.544,0.219,3.173-2.274,3.639-5.567
							c0.466-3.293-0.407-6.14-1.951-6.359C328.529,200.29,326.9,202.783,326.434,206.076z"/>
						<polygon style="fill:#B78879;" points="326.758,214.315 326.758,220.503 314.123,229.581 301.487,220.503 301.487,214.315 
													"/>
						<path style="fill:#B78879;" d="M301.812,206.076c0.466,3.293-0.407,6.14-1.951,6.359s-3.173-2.274-3.639-5.567
							c-0.466-3.293,0.407-6.14,1.951-6.359C299.716,200.29,301.345,202.783,301.812,206.076z"/>
						<ellipse style="fill:#E8AF8B;" cx="314.123" cy="206.687" rx="14.177" ry="16.829"/>
						<path style="fill:#0869A6;" d="M327.951,210.389c1.967-2.589,1.135-6.255,1.278-12.269c0.086-3.608,0.725-7.663,0-10.593
							c-0.929-3.755-3.23-2.816-8.437-6.973c-5.207-4.157-10.728-4.827-17.003,0.268c-6.276,5.095-5.278,12.336-4.772,17.029
							c0.506,4.693-0.908,10.593,0.93,10.727l1.413-9.575c0.239-1.622,1.977-2.54,3.454-1.829c3.085,1.485,7.899,3.3,10.983,2.018
							c4.839-2.011,7.695-5.574,9.083-4.693C326.267,195.381,327.951,210.389,327.951,210.389z"/>
						<g>
							<path style="fill:#072359;" d="M321.973,207.25c-1.785,1.239-3.258,0-3.258,0H321.973z"/>
							<g>
								<path style="fill:#072359;" d="M324.433,205.381c-0.032,0-0.065-0.004-0.098-0.011c-2.65-0.596-7.078,0.001-7.122,0.007
									c-0.24,0.032-0.47-0.136-0.503-0.382c-0.034-0.244,0.137-0.469,0.381-0.503c0.188-0.026,4.632-0.626,7.44,0.007
									c0.241,0.054,0.393,0.293,0.339,0.534C324.822,205.24,324.638,205.381,324.433,205.381z"/>
							</g>
							<path style="fill:#072359;" d="M306.318,207.25c1.785,1.239,3.257,0,3.257,0H306.318z"/>
							<g>
								<path style="fill:#072359;" d="M303.858,205.381c-0.205,0-0.389-0.141-0.436-0.349c-0.054-0.241,0.098-0.48,0.339-0.534
									c2.804-0.632,7.252-0.033,7.44-0.007c0.244,0.034,0.415,0.259,0.381,0.503c-0.033,0.246-0.264,0.418-0.503,0.382
									c-0.044-0.006-4.472-0.602-7.122-0.007C303.924,205.378,303.89,205.381,303.858,205.381z"/>
							</g>
							<path style="fill:#B78879;" d="M317.386,211.494c0.099,0.339-0.095,0.724-0.341,0.978c-0.252,0.262-0.557,0.458-0.877,0.602
								c-0.64,0.299-1.336,0.405-2.023,0.419c-0.687-0.012-1.384-0.118-2.024-0.417c-0.32-0.144-0.625-0.34-0.877-0.603
								c-0.246-0.255-0.44-0.64-0.34-0.979c0.111,0.324,0.348,0.505,0.612,0.635c0.258,0.136,0.547,0.22,0.836,0.289
								c0.583,0.129,1.188,0.186,1.793,0.182c0.605,0.005,1.21-0.052,1.793-0.181c0.289-0.07,0.578-0.153,0.836-0.29
								C317.039,211.999,317.275,211.819,317.386,211.494z"/>
							<path style="fill:#072359;" d="M315.797,218.106c0.517-0.125,1.019-0.31,1.489-0.534c0.474-0.21,0.926-0.467,1.296-0.791
								c0.381-0.323,0.601-0.732,0.853-1.09c0.248-0.378,0.387-0.815,0.6-1.367l0.089-0.01c0.281,0.511,0.341,1.168,0.116,1.763
								c-0.227,0.602-0.759,0.989-1.245,1.286c-1,0.6-2.108,0.803-3.19,0.831L315.797,218.106z"/>
						</g>
					</g>
					<g>
						<g>
							<path style="fill:#0869A6;" d="M280.914,343.947h33.208v-24.35c0,0-16.127,0-26.777,0s-36.959,10.126-31.627,29.357
								L280.914,343.947z"/>
							<polygon style="fill:#0A5D87;" points="284.52,336.178 314.123,336.178 314.123,343.947 280.914,343.947 							"/>
							<g>
								<path style="fill:#0869A6;" d="M271.185,418.277l-15.465-69.323c-2.201-9.866,5.305-19.231,15.414-19.231l0,0
									c8.946,0,16.383,6.89,17.065,15.81l5.564,72.744H271.185z"/>
								<path style="fill:#0A5D87;" d="M293.763,418.277l0.293,3.338c0.072,0.82,0.409,1.594,0.96,2.205l0,0
									c0.546,0.605,0.882,1.37,0.958,2.181l0.667,7.091l-16.476-2.245l-2.112-12.569H293.763z"/>
								<path style="fill:#072359;" d="M262.005,443.304c0,0-1.327-3.258,0.528-5.113s11.369-1.77,15.762-11.807
									c2.332-5.328,10.862-3.974,12.717,0c1.854,3.974,5.828,7.153,5.299,3.444c0,0,1.272-0.377,1.802,1.213
									c0.53,1.59,2.172,12.263,2.172,12.263H262.005z"/>
							</g>
						</g>
						<g>
							<path style="fill:#0869A6;" d="M347.331,343.947h-33.208v-24.35c0,0,16.127,0,26.776,0c10.649,0,35.826,8.987,31.627,29.357
								L347.331,343.947z"/>
							<polygon style="fill:#0A5D87;" points="343.725,336.178 314.123,336.178 314.123,343.947 347.331,343.947 							"/>
							<g>
								<path style="fill:#0869A6;" d="M357.061,418.277l15.465-69.323c2.201-9.866-5.305-19.231-15.414-19.231h0
									c-8.946,0-16.383,6.89-17.065,15.81l-5.564,72.744H357.061z"/>
								<path style="fill:#0A5D87;" d="M334.483,418.277l-0.293,3.338c-0.072,0.82-0.409,1.594-0.96,2.205l0,0
									c-0.546,0.605-0.882,1.37-0.958,2.181l-0.667,7.091l16.476-2.245l2.112-12.569H334.483z"/>
								<path style="fill:#072359;" d="M366.241,443.304c0,0,1.327-3.258-0.528-5.113c-1.855-1.854-11.369-1.77-15.762-11.807
									c-2.332-5.328-10.862-3.974-12.716,0c-1.854,3.974-5.828,7.153-5.299,3.444c0,0-1.272-0.377-1.802,1.213
									c-0.53,1.59-2.172,12.263-2.172,12.263H366.241z"/>
							</g>
						</g>
						<path style="fill:#0869A6;" d="M274.889,322.277c2.079-0.733-0.073-2.353,3.163-5.182h72.142
							c3.236,2.829,1.084,4.449,3.163,5.182H274.889z"/>
					</g>
					<g>
						<g>
							<g>
								<path style="fill:#EBF5F8;" d="M287.346,229.581L287.346,229.581c-8.135,0-15.112,5.808-16.575,13.811
									c-2.738,14.985-6.445,38.379-5.42,50.426h15.563l6.432-26.573V229.581z"/>
								<path style="fill:#C0E1E9;" d="M282.423,251.068c0,6.382-12.876,25.14-14.613,30.058h16.176l3.36-13.882v-16.176H282.423z"
									/>
							</g>
							<g>
								<g>
									<path style="fill:#EBF5F8;" d="M340.899,229.581L340.899,229.581c8.135,0,15.112,5.808,16.575,13.811
										c2.738,14.985,2.736,36.506,1.711,48.553l-16.74,1.873C336.377,278.188,340.899,229.581,340.899,229.581z"/>
								</g>
								<path style="fill:#C0E1E9;" d="M345.795,252.201l-6.432,18.611c0.25,9.29,1.102,17.904,3.082,23.005l11.773-8.135
									C349.251,279.42,345.795,256.899,345.795,252.201z"/>
							</g>
						</g>
						<g>
							<path style="fill:#EBF5F8;" d="M350.194,317.095L350.194,317.095c0-5.682-1.213-11.306-3.566-16.536l-2.163-4.806
								c-2.353-5.23-3.566-10.854-3.566-16.536c0,0,11.085-34.505,0-49.635h-53.553c-11.085,15.13,0,49.635,0,49.635
								c0,5.682-1.213,11.306-3.566,16.536l-2.162,4.806c-2.353,5.23-3.566,10.854-3.566,16.536l0,0H350.194z"/>
							<g>
								<path style="fill:#C0E1E9;" d="M346.628,300.559l-2.163-4.806c-2.353-5.23-3.566-10.854-3.566-16.536
									c0,0,1.091-3.397,2.246-8.526c-2.072,8.065-10.943,7.555-27.691,7.555c-17.384,0-31.337-12.27-32.286-18.341l0,0
									c1.378,10.594,4.178,19.312,4.178,19.312c0,5.682-1.213,11.306-3.566,16.536l-2.162,4.806
									c-2.353,5.23-6.729,11.804-3.566,16.536h72.142C353.357,311.436,348.981,305.789,346.628,300.559z"/>
								<path style="fill:#C0E1E9;" d="M343.33,269.859c0.009-0.039,0.017-0.08,0.026-0.12l0-0.001
									C343.348,269.78,343.338,269.818,343.33,269.859z"/>
							</g>
						</g>
						<g>
							<g>
								<polygon style="fill:#C0E1E9;" points="314.123,229.581 305.664,244.111 293.455,229.581 								"/>
								<polygon style="fill:#EBF5F8;" points="301.487,220.503 293.455,229.581 305.266,240.623 314.123,229.581 								"/>
							</g>
							<g>
								<polygon style="fill:#C0E1E9;" points="314.123,229.581 322.581,244.111 334.79,229.581 								"/>
								<polygon style="fill:#EBF5F8;" points="326.758,220.503 334.79,229.581 322.979,240.623 314.123,229.581 								"/>
							</g>
						</g>
						<g>
							<polygon style="fill:none;" points="307.947,264.815 305.91,263.152 305.91,263.152 							"/>
							<path style="fill:#E8AF8B;" d="M318.142,240.155l-2.677-3.681c-0.286-0.393-0.742-0.625-1.228-0.625h-4.173l5.939-8.993
								c0.571-0.865,0.445-2.014-0.3-2.735c-0.867-0.838-2.254-0.801-3.075,0.084l-11.376,12.261
								c-0.694,0.748-1.08,1.731-1.08,2.751v10.283c0,0-1.717,2.262-4.371,5.398l10.109,8.253l1.385-2.968l1.923-1.635
								c1.29-1.096,2.033-2.704,2.033-4.397v-6.432l2.872-1.781l1.877,2.374c2.374,0.396,2.374-3.561,2.374-3.561
								C319.215,243.31,319.124,241.506,318.142,240.155z"/>
							<path style="fill:#EBF5F8;" d="M277.222,272.116c-9.892,5.403-11.871,12.624-11.871,21.702c0,3.165,4.551,10.69,14.641,6.337
								c9.446-4.075,27.955-35.34,27.955-35.34l-2.037-1.663l0,0l-10.109-8.253C291.125,260.423,283.532,268.67,277.222,272.116z"/>
						</g>
						<polygon style="fill:#EBF5F8;" points="331.543,301.931 299.997,301.931 298.701,282.783 332.839,282.783 						"/>
						<g>
							<path style="fill:#EBF5F8;" d="M332.293,310.083c0.302,1.936,1.229,3.48,4.659,3.789c3.43,0.309,16.134-3.294,21.751-20.055
								c0,0,2.652-6.385-4.485-8.135c-7.137-1.75-11.705,3.174-12.539,5.027c-0.834,1.853-3.059,5.25-4.357,5.868
								S332.293,310.083,332.293,310.083z"/>
							<path style="fill:#E8AF8B;" d="M302.752,295.632l16.643,8.976c0,0,14.24,6.177,16.311,6.794
								c1.962,0.585,7.887-6.315,3.951-11.069c-0.473-0.571-0.804-1.247-0.89-1.984l-0.661-5.66
								c-0.079-0.676-0.415-1.295-0.938-1.73l-4.622-3.844l-0.288,4.255c-0.065,0.968,0.235,1.924,0.841,2.682l0.869,1.085h-5.456
								l-17.131-4.376c-1.162-0.297-2.393-0.13-3.434,0.465l-0.539,0.308l-2.539-0.54c-1.267-0.27-2.511,0.545-2.771,1.814
								l-0.203,0.991C301.745,294.531,302.093,295.276,302.752,295.632z"/>
						</g>
					</g>
				</g>
			</g>
			<g>
				<g>
					<g>
						<path style="fill:#072359;" d="M462.762,442.744h-53.348c-7.649,0-13.872-6.22-13.872-13.866v-105.26
							c0-0.74,0.6-1.34,1.34-1.34s1.34,0.6,1.34,1.34v105.26c0,6.168,5.02,11.186,11.191,11.186h53.348
							c6.171,0,11.191-5.021,11.191-11.191V323.617c0-0.74,0.6-1.34,1.34-1.34c0.74,0,1.34,0.6,1.34,1.34v105.255
							C476.634,436.521,470.411,442.744,462.762,442.744z"/>
					</g>
					<g>
						<path style="fill:#5DE4E3;" d="M465.691,442.971h-59.206c-3.884,0-7.585-1.608-10.421-4.528
							c-3.353-3.453-5.189-8.414-5.037-13.612l3.279-145.475c0.09-3.992,3.412-7.24,7.405-7.24h68.755
							c3.993,0,7.315,3.248,7.404,7.24l3.28,145.488c0.152,5.186-1.685,10.146-5.037,13.599
							C473.276,441.363,469.575,442.971,465.691,442.971z M401.711,275.69c-2.067,0-3.786,1.681-3.832,3.747l-3.279,145.488
							c-0.124,4.25,1.344,8.265,4.028,11.029c2.157,2.221,4.948,3.444,7.858,3.444h59.206c2.91,0,5.701-1.223,7.857-3.444
							c2.685-2.764,4.154-6.78,4.03-11.017l-3.28-145.5c-0.047-2.066-1.766-3.747-3.833-3.747H401.711z"/>
					</g>
					<path style="fill:#5DE4E3;" d="M478.763,279.336c-0.1-4.474-3.823-8.114-8.298-8.114h-68.755c-4.475,0-8.197,3.64-8.298,8.114
						l-0.643,28.661h5.358l0.071-3.144c0.083-3.677,3.087-6.615,6.765-6.615h62.247c3.678,0,6.683,2.938,6.765,6.615l0.071,3.144
						h5.358L478.763,279.336z M463.793,287.602h-55.411c-1.788,0-3.238-1.45-3.238-3.238s1.45-3.238,3.238-3.238h55.411
						c1.788,0,3.238,1.45,3.238,3.238S465.582,287.602,463.793,287.602z"/>
					<rect x="394.592" y="343.947" style="fill:#5DE4E3;" width="82.993" height="7.012"/>
				</g>
				<g>
					<g>
						<g>
							<path style="fill:#0388A6;" d="M435.827,343.947h-6.856c-6.511,0-24.827,3.473-23.873,6.978c0,0-22.359,5.075-26.506-5.555
								c-3.586-9.192,1.911-21.618,21.706-21.618h35.551L435.827,343.947z"/>
							<path style="fill:#02667D;" d="M435.843,329.723c-17.016,0.006-29.916,11.51-33.827,11.596l-1.061,12.883
								c6.133,0.503,4.144-3.277,4.144-3.277c-1.083-3.981,17.362-6.978,23.873-6.978h6.856L435.843,329.723z"/>
						</g>
						<g>
							<path style="fill:#B78879;" d="M431.853,429.828l-2.538-13.582l-16.617,0.859l5.034,12.722c0,0,13.723,6.473,13.799,6.473
								S432.816,434.978,431.853,429.828z"/>
							<path style="fill:#072359;" d="M397.548,443.304c0,0-1.327-3.258,0.528-5.113c1.855-1.854,11.369-1.77,15.762-11.807
								c2.332-5.328,10.862-3.974,12.717,0c1.854,3.974,5.828,7.153,5.299,3.444c0,0,1.272-0.377,1.802,1.213
								c0.53,1.59,2.172,12.263,2.172,12.263H397.548z"/>
							<g>
								<path style="fill:#0388A6;" d="M378.109,342.866c0,7.711,33.941,77.415,33.941,77.415h19.481c0,0-2.76-42.339-23.194-69.355
									l-1.601-5.883c-2.11-7.754-9.553-13.965-20.424-13.134l0,0c-4.531,0-8.203,3.673-8.203,8.203V342.866z"/>
								<polygon style="fill:#0388A6;" points="431.531,420.28 408.194,420.28 403.932,411.554 431.531,410.742 								"/>
								<path style="fill:#036C77;" d="M405.936,407.369c0,0,22.078,3.477,21.506,3.494c-0.573,0.017-19.599,0.576-19.599,0.576
									L405.936,407.369z"/>
							</g>
						</g>
					</g>
					<g>
						<g>
							<path style="fill:#0388A6;" d="M435.872,343.947h6.856c6.511,0,24.827,3.473,23.873,6.978c0,0,22.359,5.075,26.506-5.555
								c3.586-9.192-1.911-21.618-21.706-21.618H435.85L435.872,343.947z"/>
							<path style="fill:#02667D;" d="M435.856,329.723c17.016,0.006,29.916,11.51,33.827,11.596l1.061,12.883
								c-6.133,0.503-4.144-3.277-4.144-3.277c1.083-3.981-17.362-6.978-23.873-6.978h-6.855L435.856,329.723z"/>
						</g>
						<g>
							<path style="fill:#B78879;" d="M439.846,429.828l2.538-13.582l16.617,0.859l-5.034,12.722c0,0-13.723,6.473-13.799,6.473
								S438.884,434.978,439.846,429.828z"/>
							<path style="fill:#072359;" d="M474.151,443.304c0,0,1.327-3.258-0.528-5.113c-1.854-1.854-11.369-1.77-15.762-11.807
								c-2.332-5.328-10.862-3.974-12.717,0c-1.854,3.974-5.828,7.153-5.298,3.444c0,0-1.272-0.377-1.802,1.213
								c-0.53,1.59-2.172,12.263-2.172,12.263H474.151z"/>
							<g>
								<path style="fill:#0388A6;" d="M493.59,342.866c0,7.711-33.941,77.415-33.941,77.415h-19.482c0,0,2.76-42.339,23.194-69.355
									l1.601-5.883c2.11-7.754,9.553-13.965,20.424-13.134l0,0c4.53,0,8.203,3.673,8.203,8.203V342.866z"/>
								<polygon style="fill:#0388A6;" points="440.168,420.28 463.505,420.28 467.767,411.554 440.168,410.742 								"/>
								<path style="fill:#036C77;" d="M465.763,407.369c0,0-22.078,3.477-21.506,3.494c0.573,0.017,19.599,0.576,19.599,0.576
									L465.763,407.369z"/>
							</g>
						</g>
					</g>
					<g>
						<polygon style="fill:#EBF5F8;" points="402.016,319.286 404.016,270.798 397.184,229.634 474.471,229.634 467.639,270.798 
							469.639,319.286 						"/>
						<path style="fill:#C0E1E9;" d="M467.639,270.798l0.75-4.52l-10.114,30.936c-1.062,3.248-4.092,5.446-7.51,5.446h-29.876
							c-3.418,0-6.448-2.197-7.51-5.446l-10.114-30.936l0,0c0.147,0.884,0.75,4.521,0.75,4.521l-2,48.488h67.623L467.639,270.798z"
							/>
					</g>
					<g>
						<path style="fill:#89665B;" d="M448.138,206.076c-0.466,3.293,0.407,6.14,1.951,6.359s3.173-2.274,3.639-5.567
							c0.466-3.293-0.407-6.14-1.951-6.359C450.234,200.29,448.605,202.783,448.138,206.076z"/>
						<polygon style="fill:#89665B;" points="448.463,214.315 448.463,220.503 435.827,229.581 423.192,220.503 423.192,214.315 
													"/>
						<path style="fill:#89665B;" d="M423.516,206.076c0.466,3.293-0.407,6.14-1.951,6.359s-3.173-2.274-3.639-5.567
							c-0.466-3.293,0.408-6.14,1.951-6.359C421.421,200.29,423.05,202.783,423.516,206.076z"/>
						<ellipse style="fill:#B78879;" cx="435.827" cy="206.687" rx="14.177" ry="16.829"/>
						<path style="fill:#072359;" d="M421.651,208.579L421.651,208.579c-0.841-0.852-1.312-2.001-1.312-3.197v-7.53
							c0,0-2.562-2.961-1.647-6.316c0.915-3.355,6.1-4.575,5.185-7.828c-0.915-3.253,5.795-8.539,9.861-4.778
							c0,0,1.238,1.322,6.682-1.713c4.97-2.77,9.482,4.153,7.144,8.219c0,0,5.286,2.948,3.539,9.453
							c-0.041,0.643-0.017,7.549-0.005,10.371c0.003,0.784-0.196,1.55-0.578,2.235l-0.605,1.084l-2.147-12.468
							c0,0-4.224,1.088-7.347-3.37c0,0-3.973,4.488-9.139,3.472c-5.167-1.017-6.06,1.83-7.89,1.83L421.651,208.579z"/>
						<g>
							<path style="fill:#072359;" d="M443.677,207.25c-1.785,1.239-3.258,0-3.258,0H443.677z"/>
							<g>
								<path style="fill:#072359;" d="M446.137,205.381c-0.032,0-0.065-0.004-0.098-0.011c-2.65-0.596-7.078,0.001-7.122,0.007
									c-0.24,0.032-0.47-0.136-0.503-0.382c-0.034-0.244,0.137-0.469,0.381-0.503c0.188-0.026,4.632-0.626,7.44,0.007
									c0.241,0.054,0.393,0.293,0.339,0.534C446.526,205.24,446.342,205.381,446.137,205.381z"/>
							</g>
							<path style="fill:#072359;" d="M428.023,207.25c1.785,1.239,3.258,0,3.258,0H428.023z"/>
							<g>
								<path style="fill:#072359;" d="M425.563,205.381c-0.205,0-0.389-0.141-0.436-0.349c-0.054-0.241,0.098-0.48,0.339-0.534
									c2.804-0.632,7.252-0.033,7.44-0.007c0.244,0.034,0.415,0.259,0.381,0.503c-0.033,0.246-0.264,0.418-0.503,0.382
									c-0.044-0.006-4.472-0.602-7.122-0.007C425.628,205.378,425.595,205.381,425.563,205.381z"/>
							</g>
							<path style="fill:#89665B;" d="M439.091,211.494c0.099,0.339-0.095,0.724-0.341,0.978c-0.252,0.262-0.557,0.458-0.876,0.602
								c-0.64,0.299-1.336,0.405-2.023,0.419c-0.687-0.012-1.384-0.118-2.024-0.417c-0.32-0.144-0.625-0.34-0.877-0.603
								c-0.246-0.255-0.44-0.64-0.34-0.979c0.111,0.324,0.348,0.505,0.612,0.635c0.258,0.136,0.547,0.22,0.836,0.289
								c0.583,0.129,1.188,0.186,1.793,0.182c0.605,0.005,1.21-0.052,1.793-0.181c0.289-0.07,0.578-0.153,0.836-0.29
								C438.744,211.999,438.98,211.819,439.091,211.494z"/>
							<path style="fill:#072359;" d="M437.502,218.106c0.517-0.125,1.019-0.31,1.489-0.534c0.474-0.21,0.926-0.467,1.296-0.791
								c0.381-0.323,0.601-0.732,0.854-1.09c0.248-0.378,0.387-0.815,0.6-1.367l0.089-0.01c0.281,0.511,0.341,1.168,0.117,1.763
								c-0.227,0.602-0.759,0.989-1.245,1.286c-1,0.6-2.108,0.803-3.19,0.831L437.502,218.106z"/>
						</g>
					</g>
					<g>
						<g>
							<polygon style="fill:#C0E1E9;" points="435.827,229.581 427.369,244.111 415.16,229.581 							"/>
							<polygon style="fill:#EBF5F8;" points="423.192,220.503 415.16,229.581 426.971,240.623 435.827,229.581 							"/>
						</g>
						<g>
							<polygon style="fill:#C0E1E9;" points="435.827,229.581 444.286,244.111 456.495,229.581 							"/>
							<polygon style="fill:#EBF5F8;" points="448.463,220.503 456.495,229.581 444.684,240.623 435.827,229.581 							"/>
						</g>
					</g>
					<g>
						<path style="fill:#00CBE7;" d="M435.827,229.581l6.176,7.7l-3.639,8.448l1.692,9.124c0.212,1.143,0.348,2.298,0.406,3.459
							l3.278,64.88c0.055,1.092-0.337,2.16-1.086,2.957l-6.828,7.27l-6.828-7.27c-0.749-0.797-1.141-1.865-1.085-2.957l3.278-64.88
							c0.059-1.161,0.194-2.316,0.406-3.459l1.692-9.124l-3.639-8.448L435.827,229.581z"/>
						<polygon style="fill:#0499A5;" points="429.651,237.281 430.037,238.176 435.827,229.581 						"/>
						<polygon style="fill:#0499A5;" points="442.003,237.281 441.618,238.176 435.827,229.581 						"/>
					</g>
					<polygon style="fill:#EBF5F8;" points="451.623,323.878 420.076,323.878 418.781,304.73 452.918,304.73 					"/>
					<g>
						<path style="fill:#EBF5F8;" d="M397.184,229.634l6.832,41.164l-5.124,33.537l6.987,11.179c0,0-9.937,1.863-7.763,12.421
							c0,0-17.079-7.941-20.805-21.205C377.31,306.73,375.137,238.772,397.184,229.634z"/>
						<path style="fill:#C0E1E9;" d="M398.892,304.335c-5.481-8.036-9.606-8.599-9.606-8.599l13.98-29.458l0.75,4.521
							L398.892,304.335z"/>
						<path style="fill:#B78879;" d="M398.116,327.935l11.565,4.981c0.755,0.325,1.602,0.371,2.388,0.129l15.194-4.678
							c0.834-0.257,1.403-1.027,1.403-1.9v-3.157c0-1.198-1.052-2.124-2.24-1.972l-6.574,0.839l7.679-2.204
							c1.134-0.326,1.737-1.561,1.296-2.655v0c-0.325-0.808-1.139-1.31-2.007-1.239l-8.093,0.66l-1.388-1.095
							c-1.387-1.094-3.173-1.548-4.914-1.25l-6.546,1.12C405.879,315.514,395.694,317.379,398.116,327.935z"/>
					</g>
					<g>
						<path style="fill:#EBF5F8;" d="M474.471,229.634l-6.832,41.164l5.124,33.537l-6.987,11.179c0,0,9.937,1.863,7.763,12.421
							c0,0,17.079-7.941,20.805-21.205C494.344,306.73,496.518,238.772,474.471,229.634z"/>
						<path style="fill:#C0E1E9;" d="M472.763,304.335c5.481-8.036,9.606-8.599,9.606-8.599l-13.98-29.458l-0.75,4.521
							L472.763,304.335z"/>
						<path style="fill:#B78879;" d="M473.539,327.935l-11.565,4.981c-0.755,0.325-1.602,0.371-2.388,0.129l-15.194-4.678
							c-0.834-0.257-1.403-1.027-1.403-1.9v-3.157c0-1.198,1.052-2.124,2.24-1.972l6.574,0.839l-7.679-2.204
							c-1.134-0.326-1.737-1.561-1.296-2.655v0c0.325-0.808,1.139-1.31,2.007-1.239l8.093,0.66l1.388-1.095
							c1.387-1.094,3.173-1.548,4.914-1.25l6.546,1.12C465.776,315.514,475.961,317.379,473.539,327.935z"/>
					</g>
				</g>
			</g>
			<g>
				<g>
					<g>
						<path style="fill:#072359;" d="M218.882,442.744h-53.348c-7.649,0-13.872-6.22-13.872-13.866v-105.26
							c0-0.74,0.6-1.34,1.34-1.34c0.74,0,1.34,0.6,1.34,1.34v105.26c0,6.168,5.02,11.186,11.191,11.186h53.348
							c6.171,0,11.191-5.021,11.191-11.191V323.617c0-0.74,0.6-1.34,1.34-1.34c0.74,0,1.34,0.6,1.34,1.34v105.255
							C232.753,436.521,226.53,442.744,218.882,442.744z"/>
					</g>
					<g>
						<path style="fill:#5DE4E3;" d="M221.81,442.971h-59.205c-3.885,0-7.585-1.608-10.421-4.528
							c-3.353-3.453-5.189-8.414-5.037-13.612l3.279-145.475c0.09-3.992,3.412-7.24,7.405-7.24h68.755
							c3.993,0,7.314,3.248,7.404,7.24l3.279,145.488c0.152,5.186-1.685,10.146-5.037,13.599
							C229.395,441.363,225.695,442.971,221.81,442.971z M157.831,275.69c-2.067,0-3.786,1.681-3.833,3.747l-3.279,145.488
							c-0.124,4.25,1.344,8.265,4.029,11.029c2.157,2.221,4.947,3.444,7.857,3.444h59.205c2.91,0,5.7-1.223,7.857-3.444
							c2.684-2.764,4.154-6.78,4.03-11.017l-3.279-145.5c-0.047-2.066-1.766-3.747-3.833-3.747H157.831z"/>
					</g>
					<path style="fill:#5DE4E3;" d="M234.883,279.336c-0.1-4.474-3.823-8.114-8.298-8.114h-68.755c-4.475,0-8.197,3.64-8.298,8.114
						l-0.643,28.661h5.358l0.071-3.144c0.083-3.677,3.087-6.615,6.765-6.615h62.247c3.678,0,6.682,2.938,6.765,6.615l0.071,3.144
						h5.358L234.883,279.336z M219.913,287.602h-55.411c-1.788,0-3.238-1.45-3.238-3.238s1.45-3.238,3.238-3.238h55.411
						c1.788,0,3.238,1.45,3.238,3.238S221.701,287.602,219.913,287.602z"/>
					<rect x="150.711" y="343.947" style="fill:#5DE4E3;" width="82.993" height="7.012"/>
				</g>
				<g>
					<g>
						<path style="fill:#072359;" d="M216.89,343.947c7.303,0,14.12-11.634,10.712-21.669c-3.834-11.29-13.389-17.718-14.851-27.501
							h-41.77c-1.462,9.783-11.017,16.21-14.851,27.501c-3.408,10.035,3.408,21.669,10.712,21.669H216.89z"/>
						<path style="fill:#072359;" d="M193.447,319.686c3.406,0,11.475-3.365,18.648-0.089c9.962,4.55,8.848,13.669,7.822,23.51
							c-1.366,13.095-5.417,24.811-5.417,24.811h-48.741c0,0,0-21.184-4.134-25.932c-3.257-3.741-4.148-12.924,1.264-19.708
							c4.16-5.215,12.624-5.813,17.215-5.182C183.373,317.544,187.851,319.686,193.447,319.686z"/>
						<g>
							<path style="fill:#072359;" d="M178.375,427.892c-3.285,5.865-5.878,13.649-1.784,15.079c0,0,9.826,0,12.828,0
								s3.275-8.123,3.275-13.308s-0.682-16.513-1.501-16.786C190.375,412.604,178.375,427.892,178.375,427.892z"/>
							<path style="fill:#F0B792;" d="M172.73,367.918c0,11.34,8.329,41.752,8.329,48.329c0,6.577-5.126,16.508-4.164,18.109
								c0.961,1.602,14.971,2.883,14.971,0v-19.551c0-2.234-0.302-4.457-0.898-6.61l0,0c-0.776-2.802-1.052-5.711-0.817-8.609
								c0.597-7.352,1.715-22.368,1.715-31.669H172.73z"/>
						</g>
						<g>
							<path style="fill:#072359;" d="M208.035,427.892c3.285,5.865,5.878,13.649,1.784,15.079c0,0-9.826,0-12.828,0
								s-3.275-8.123-3.275-13.308s0.682-16.513,1.501-16.786C196.036,412.604,208.035,427.892,208.035,427.892z"/>
							<path style="fill:#F0B792;" d="M214.5,367.918c-2.839,12.68-9.149,41.752-9.149,48.329c0,6.577,5.125,16.508,4.164,18.109
								c-0.961,1.602-14.971,2.883-14.971,0v-19.551c0-2.234,0.302-4.457,0.898-6.61l0,0c0.776-2.802,1.052-5.711,0.817-8.609
								c-0.597-7.352-1.715-22.368-1.715-31.669H214.5z"/>
						</g>
					</g>
					<path style="fill:#072359;" d="M206.115,187.661c0.158,0.117,1.232,1.044,2.458,2.11c2.526,2.195,3.975,5.379,3.975,8.725
						v34.474h-18.197L206.115,187.661z"/>
					<g>
						<g>
							<path style="fill:#EBF5F8;" d="M214.24,229.581L214.24,229.581c4.701,0,8.512,3.811,8.512,8.512V288.5h-12.769l-1.184-58.918
								H214.24z"/>
							<path style="fill:#C0E1E9;" d="M209.111,245.084l4.126-0.739c0,6.755,1.5,9.55,2.538,14.695
								c1.039,5.146,0.465,25.561,4.113,26.696l-2.018,2.763h-7.888L209.111,245.084z"/>
						</g>
						<g>
							<path style="fill:#EBF5F8;" d="M169.491,229.581L169.491,229.581c-4.701,0-8.512,3.811-8.512,8.512V288.5h12.769
								l1.184-58.918H169.491z"/>
							<path style="fill:#C0E1E9;" d="M174.619,245.084l-4.126-0.739c0,6.755-1.5,9.55-2.538,14.695
								c-1.039,5.146-0.465,25.561-4.113,26.696l2.018,2.763h7.888L174.619,245.084z"/>
						</g>
					</g>
					<g>
						<g>
							<path style="fill:#EBF5F8;" d="M208.8,229.581h5.44c0,0-2.341,20.293,0,29.444c2.341,9.151-2.766,18.879-3.618,22.102
								c-0.851,3.223,4.666,10.478,2.128,13.65c-3.405,4.256-20.885,4.499-20.885,4.499s-17.48-0.243-20.885-4.499
								c-2.538-3.173,2.979-10.428,2.128-13.65c-0.851-3.223-5.959-12.951-3.618-22.102c2.341-9.151,0-29.444,0-29.444h5.44H208.8z"
								/>
							<path style="fill:#C0E1E9;" d="M170.98,294.777c3.405,4.256,20.885,4.499,20.885,4.499s17.48-0.243,20.885-4.499
								c1.675-2.094-0.154-5.962-1.35-9.28c-0.06,2.105-4.696,7.631-11.957,8.292c-12.278,1.116-21.959-3.807-26.334-12.662
								C173.96,284.349,168.442,291.604,170.98,294.777z"/>
						</g>
						<g>
							<g>
								<path style="fill:#C0E1E9;" d="M174.931,233.827c0.238,0.497,10.84,20.457,10.84,20.457l6.094-8.187L174.931,233.827z"/>
								<polygon style="fill:#EBF5F8;" points="181.221,226.914 174.931,229.581 174.931,233.827 185.754,252.201 191.865,246.098 
									181.221,234.166 								"/>
							</g>
							<g>
								<path style="fill:#C0E1E9;" d="M207.178,232.97c-0.238,0.497-9.219,21.315-9.219,21.315l-6.094-8.187L207.178,232.97z"/>
								<polygon style="fill:#EBF5F8;" points="202.51,226.914 208.8,229.581 197.976,252.201 191.865,246.098 202.51,234.166 
																	"/>
							</g>
						</g>
					</g>
					<g>
						<polygon style="fill:#F0B792;" points="202.51,221.948 202.51,234.166 191.865,246.098 181.221,234.166 181.221,215.181 
													"/>
						<path style="fill:#B4896E;" d="M181.566,215.046v18.985l10.645,11.932l2.486-2.787c0-11.644,7.813-13.721,7.813-13.721v-7.507
							L181.566,215.046z"/>
						<path style="fill:#F0B792;" d="M202.422,224.481c7.115,0.768,7.804-6.49,6.34-14.291c-1.036-5.52,5.409-13.069-2.703-19.424
							c-8.112-6.355-22.226,2.159-24.176,16.524C179.934,221.654,202.422,224.481,202.422,224.481z"/>
						<g>
							<path style="fill:#072359;" d="M198.414,206.536c0.952-0.658,2.019-1.158,3.175-1.454c0.576-0.137,1.186-0.304,1.802-0.198
								c0.608,0.113,1.213,0.37,1.637,0.84l-0.04,0.087l-1.667,0.031c-0.522,0.042-1.054-0.05-1.603-0.003
								c-0.545,0.047-1.093,0.146-1.636,0.284c-0.547,0.125-1.095,0.285-1.621,0.496L198.414,206.536z"/>
							<circle style="fill:#072359;" cx="202.747" cy="208.301" r="1.724"/>
							<path style="fill:#072359;" d="M201.155,216.197c0.227-0.264,0.454-0.368,0.681-0.432c0.227-0.07,0.454,0.054,0.681,0.096
								c0.454,0.085,0.909,0.197,1.363,0.336v0.096c-0.454,0.139-0.908,0.251-1.363,0.336c-0.227,0.042-0.454,0.167-0.681,0.096
								c-0.227-0.064-0.454-0.168-0.681-0.432V216.197z"/>
						</g>
						<path style="fill:#072359;" d="M213.208,194.895c-1.583,11.315-18.525,9.259-18.525,18.375c0,8.465,0,33.874,0,33.874h-0.025
							c-5.583,0-10.732-2.93-13.666-7.681c-3.228-5.228-7.776-9.882-11.705-9.882c0,0,0-5.808,5.325-13.837
							c2.187-3.298-2.469-15.843,6.704-27.113c5.019-6.166,15.51-4.701,15.51-4.701
							C204.471,179.493,214.328,186.889,213.208,194.895z"/>
					</g>
					<g>
						<path style="fill:#F0B792;" d="M212.421,302.728c-3.696-1.831-6.653-0.807-8.365,0.717c-1.57,2.255-2.959,4.137-4.199,5.18
							c-2.226,1.872-4.207,3.063-5.472,3.731c-0.98,0.517-1.754,1.361-2.245,2.436l-4.194,9.173
							c-0.295,0.645,0.262,1.539,0.959,1.539c0.894,0,1.658-0.469,2.072-1.271l1.833-3.555l-1.151,3.466
							c-0.192,0.577,0.324,1.286,0.898,1.236l0.224-0.02c0.909-0.08,1.701-0.527,2.239-1.262l3.464-4.736l-1.339,4.733
							c-0.199,0.702,0.391,1.537,1.086,1.537h0.047c0.801,0,1.495-0.398,1.898-1.09l3.023-5.18l1.813,4.944
							c0.254,0.692,1.05,0.94,1.407,0.439c0.086-0.12,0.134-0.272,0.139-0.437l0.272-8.585c0,0,4.793-1.449,9.822-4.804
							C218.027,308.903,216.682,304.838,212.421,302.728z"/>
						<path style="fill:#EBF5F8;" d="M222.752,288.5c0,0-3.732-7.373-11.413-0.897c-4.997,4.213-4.015,11.148-7.284,15.842
							c1.712-1.523,4.67-2.547,8.365-0.717c4.261,2.11,5.607,6.175,4.23,8.19C222.933,306.727,226.589,294.777,222.752,288.5z"/>
					</g>
					<g>
						<path style="fill:#F0B792;" d="M171.309,302.728c3.696-1.831,6.653-0.807,8.365,0.717c1.57,2.255,2.959,4.137,4.199,5.18
							c2.226,1.872,4.207,3.063,5.472,3.731c0.981,0.517,1.754,1.361,2.245,2.436l4.194,9.173c0.295,0.645-0.262,1.539-0.959,1.539
							c-0.894,0-1.658-0.469-2.072-1.271l-1.833-3.555l1.151,3.466c0.192,0.577-0.324,1.286-0.898,1.236l-0.224-0.02
							c-0.909-0.08-1.701-0.527-2.239-1.262l-3.464-4.736l1.339,4.733c0.199,0.702-0.391,1.537-1.086,1.537h-0.047
							c-0.801,0-1.495-0.398-1.898-1.09l-3.023-5.18l-1.813,4.944c-0.254,0.692-1.05,0.94-1.407,0.439
							c-0.086-0.12-0.134-0.272-0.139-0.437l-0.272-8.585c0,0-4.793-1.449-9.822-4.804
							C165.703,308.903,167.049,304.838,171.309,302.728z"/>
						<path style="fill:#EBF5F8;" d="M160.978,288.5c0,0,3.732-7.373,11.412-0.897c4.997,4.213,4.015,11.148,7.284,15.842
							c-1.712-1.523-4.67-2.547-8.365-0.717c-4.261,2.11-5.607,6.175-4.23,8.19C160.797,306.727,157.141,294.777,160.978,288.5z"/>
					</g>
				</g>
			</g>
		</g>
		<g>
			<g>
				<path style="fill:#072359;" d="M644.116,442.732L644.116,442.732c-15.112,0-26.389-11.815-25.279-25.279l5.328-64.64
					c0.163-1.982,2.483-3.565,5.183-3.565h29.536c2.7,0,5.02,1.583,5.183,3.565l5.328,64.64
					C670.505,430.918,659.228,442.732,644.116,442.732z"/>
				<path style="fill:#0869A6;" d="M668.503,406.639l-4.436-53.826c-0.163-1.982-2.483-3.565-5.183-3.565h-20.015v41.638
					c0,8.7,7.053,15.753,15.753,15.753H668.503z"/>
				<path style="fill:#0869A6;" d="M674.722,281.301c-0.976-0.975-3.123-0.963-5.747,0.032c-2.831,1.075-5.861,3.136-8.531,5.807
					c-3.916,3.917-5.266,8.748-6.159,11.945c-0.41,1.47-0.766,2.739-1.188,3.17l-0.551,0.551c-0.347,0.354-0.7,0.704-1.052,1.053
					c-0.866,0.859-1.762,1.749-2.554,2.67c-2.234,2.604-3.948,5.715-4.954,8.997c-0.068,0.219-0.124,0.443-0.186,0.665v-25.878
					c0.004-0.052,0.003-0.105,0.008-0.157c0.087-0.956,0.271-1.896,0.549-2.795c0.554-1.811,1.499-3.527,2.733-4.964
					c0.441-0.513,0.931-1,1.45-1.515c0.207-0.205,0.414-0.41,0.615-0.615l0.317-0.316l0,0c0.803-0.803,2.014-1.33,3.416-1.94
					c1.6-0.697,3.591-1.563,5.639-3.146c2.255-1.742,3.675-3.924,3.796-5.836c0.053-0.832-0.165-1.537-0.614-1.986
					c-0.694-0.694-2.105-0.798-3.774-0.27c-1.767,0.557-3.614,1.737-5.198,3.322c-2.335,2.334-2.971,5.354-3.393,7.352
					c-0.169,0.802-0.344,1.632-0.544,1.832l-0.319,0.319c-0.201,0.205-0.406,0.408-0.61,0.61c-0.51,0.506-1.036,1.028-1.502,1.57
					c-1.096,1.276-1.961,2.764-2.568,4.339v-8.303c0-2.071,0.727-4.258,1.569-6.791c0.988-2.97,2.106-6.337,2.588-10.781
					c0.668-6.156-0.803-10.254-2.402-12.036c-0.695-0.775-1.466-1.184-2.229-1.184c-2.817,0-5.968,6.218-5.968,14.538
					c0,5.659,2.461,10.127,4.089,13.084c0.754,1.367,1.404,2.549,1.404,3.17v12.303c-0.641-1.82-1.611-3.542-2.864-5.002
					c-0.498-0.576-1.022-1.097-1.529-1.599c-0.209-0.208-0.418-0.414-0.627-0.628l-0.317-0.316l0,0
					c-0.803-0.803-1.33-2.014-1.94-3.416c-0.697-1.6-1.563-3.591-3.146-5.639c-1.741-2.255-3.922-3.674-5.835-3.796
					c-0.824-0.056-1.538,0.165-1.988,0.615c-0.695,0.695-0.796,2.106-0.27,3.774c0.557,1.767,1.737,3.613,3.322,5.198
					c2.334,2.335,5.354,2.971,7.352,3.393c0.802,0.169,1.632,0.344,1.832,0.544l0.313,0.313c0.21,0.214,0.421,0.423,0.633,0.634
					c0.494,0.49,1.005,0.997,1.477,1.544c1.303,1.519,2.303,3.334,2.891,5.25c0.291,0.948,0.486,1.942,0.579,2.955
					c0.07,0.742,0.066,1.488,0.063,2.21c-0.001,0.274-0.003,0.546,0,0.818l0.052-0.001v17.545c-0.077-0.284-0.151-0.569-0.237-0.849
					c-1.054-3.435-2.847-6.692-5.187-9.419c-0.844-0.979-1.743-1.871-2.613-2.734c-0.353-0.35-0.705-0.699-1.055-1.056l-0.553-0.553
					c-1.424-1.429-2.419-3.449-3.571-5.788c-1.355-2.752-2.892-5.872-5.625-9.287c-3.752-4.687-7.607-6.496-9.965-6.626
					c-1.05-0.049-1.909,0.201-2.46,0.753c-1.992,1.991,0.083,8.521,5.838,14.278c3.916,3.916,8.747,5.266,11.944,6.159
					c1.476,0.412,2.751,0.769,3.176,1.194l0.001-0.001l0.54,0.54c0.351,0.357,0.706,0.709,1.061,1.062
					c0.857,0.849,1.742,1.728,2.561,2.678c2.255,2.628,3.984,5.768,4.999,9.08c0.505,1.641,0.843,3.361,1.001,5.113
					c0.121,1.282,0.115,2.567,0.109,3.812c-0.002,0.466-0.005,0.93,0,1.393l0.034,0v8.425c-0.749-2.192-1.909-4.267-3.413-6.02
					c-0.588-0.681-1.203-1.292-1.798-1.881c-0.241-0.24-0.482-0.478-0.723-0.724l-0.37-0.37c-0.935-0.934-1.444-2.455-2.034-4.216
					c-0.674-2.011-1.512-4.513-3.291-6.981c-1.75-2.431-4.076-3.932-6.379-4.117c-1.325-0.104-2.524,0.262-3.273,1.011
					c-0.953,0.953-1.269,2.754-0.845,4.819c0.463,2.253,1.74,4.516,3.596,6.371c2.734,2.734,6.628,3.107,9.206,3.353
					c0.992,0.096,2.116,0.203,2.346,0.432l0.368,0.368c0.24,0.245,0.484,0.486,0.729,0.73c0.582,0.577,1.184,1.174,1.746,1.826
					c1.542,1.796,2.723,3.943,3.419,6.209c0.344,1.119,0.576,2.295,0.685,3.496c0.008,0.083,0.007,0.166,0.013,0.249
					c-0.022,0.573-0.03,1.151-0.028,1.718c0.002,0.313,0.003,0.628,0,0.944l0.045,0v9.35h0.95v-8.713l0.045,0
					c-0.003-0.312-0.002-0.626,0-0.941c0.003-0.666-0.007-1.355-0.045-2.053v-0.616c0.009-0.156,0.01-0.315,0.025-0.469
					c0.102-1.117,0.316-2.214,0.639-3.26c0.647-2.113,1.749-4.114,3.186-5.787c0.51-0.593,1.081-1.16,1.685-1.76
					c0.244-0.242,0.489-0.485,0.727-0.728l0.37-0.37c0.934-0.934,2.455-1.443,4.216-2.033c2.01-0.674,4.514-1.512,6.982-3.29
					c2.431-1.751,3.932-4.077,4.117-6.38c0.108-1.331-0.261-2.524-1.011-3.273c-1.951-1.951-7.264-1.174-11.19,2.751
					c-2.733,2.734-3.106,6.627-3.353,9.204c-0.095,0.993-0.202,2.118-0.433,2.348l-0.373,0.373c-0.239,0.242-0.48,0.483-0.721,0.722
					c-0.591,0.587-1.203,1.194-1.736,1.815c-1.368,1.593-2.428,3.473-3.13,5.458v-6.469l0.033,0c0.004-0.465,0.002-0.931,0-1.394
					c-0.006-1.286-0.01-2.502,0.105-3.706c0.151-1.666,0.473-3.306,0.955-4.875c0.969-3.159,2.618-6.153,4.767-8.657
					c0.767-0.892,1.648-1.767,2.502-2.614c0.355-0.353,0.71-0.705,1.057-1.058l0.543-0.543l0,0.001
					c1.43-1.429,3.454-2.426,5.799-3.582c2.752-1.355,5.872-2.892,9.287-5.625c4.687-3.752,6.496-7.607,6.626-9.965
					C675.534,282.702,675.273,281.851,674.722,281.301z"/>
			</g>
			<g>
				<path style="fill:#072359;" d="M106.124,442.732L106.124,442.732c15.112,0,26.389-11.815,25.279-25.279l-5.328-64.64
					c-0.163-1.982-2.483-3.565-5.183-3.565H91.356c-2.7,0-5.02,1.583-5.183,3.565l-5.328,64.64
					C79.735,430.918,91.012,442.732,106.124,442.732z"/>
				<path style="fill:#0869A6;" d="M81.736,406.639l4.437-53.826c0.163-1.982,2.483-3.565,5.183-3.565h20.015v41.638
					c0,8.7-7.053,15.753-15.753,15.753H81.736z"/>
				<path style="fill:#0869A6;" d="M75.517,281.301c0.976-0.975,3.123-0.963,5.746,0.032c2.831,1.075,5.861,3.136,8.531,5.807
					c3.916,3.917,5.266,8.748,6.16,11.945c0.41,1.47,0.766,2.739,1.188,3.17l0.551,0.551c0.347,0.354,0.7,0.704,1.052,1.053
					c0.866,0.859,1.762,1.749,2.554,2.67c2.234,2.604,3.948,5.715,4.954,8.997c0.068,0.219,0.124,0.443,0.186,0.665v-25.878
					c-0.004-0.052-0.003-0.105-0.008-0.157c-0.087-0.956-0.271-1.896-0.549-2.795c-0.554-1.811-1.499-3.527-2.733-4.964
					c-0.441-0.513-0.931-1-1.45-1.515c-0.207-0.205-0.414-0.41-0.615-0.615l-0.316-0.316l0,0c-0.803-0.803-2.014-1.33-3.416-1.94
					c-1.6-0.697-3.591-1.563-5.639-3.146c-2.256-1.742-3.675-3.924-3.796-5.836c-0.053-0.832,0.165-1.537,0.615-1.986
					c0.694-0.694,2.105-0.798,3.774-0.27c1.767,0.557,3.614,1.737,5.198,3.322c2.335,2.334,2.971,5.354,3.393,7.352
					c0.169,0.802,0.344,1.632,0.544,1.832l0.319,0.319c0.201,0.205,0.406,0.408,0.61,0.61c0.509,0.506,1.036,1.028,1.502,1.57
					c1.095,1.276,1.962,2.764,2.568,4.339v-8.303c0-2.071-0.727-4.258-1.569-6.791c-0.988-2.97-2.106-6.337-2.588-10.781
					c-0.668-6.156,0.803-10.254,2.402-12.036c0.695-0.775,1.467-1.184,2.23-1.184c2.817,0,5.968,6.218,5.968,14.538
					c0,5.659-2.461,10.127-4.089,13.084c-0.754,1.367-1.404,2.549-1.404,3.17v12.303c0.641-1.82,1.611-3.542,2.864-5.002
					c0.497-0.576,1.022-1.097,1.529-1.599c0.209-0.208,0.418-0.414,0.626-0.628l0.317-0.316l0,0c0.803-0.803,1.33-2.014,1.94-3.416
					c0.697-1.6,1.563-3.591,3.146-5.639c1.741-2.255,3.923-3.674,5.835-3.796c0.824-0.056,1.538,0.165,1.988,0.615
					c0.695,0.695,0.796,2.106,0.27,3.774c-0.557,1.767-1.737,3.613-3.322,5.198c-2.334,2.335-5.354,2.971-7.352,3.393
					c-0.802,0.169-1.632,0.344-1.832,0.544l-0.313,0.313c-0.21,0.214-0.421,0.423-0.633,0.634c-0.494,0.49-1.005,0.997-1.477,1.544
					c-1.303,1.519-2.303,3.334-2.89,5.25c-0.291,0.948-0.486,1.942-0.579,2.955c-0.07,0.742-0.066,1.488-0.063,2.21
					c0.001,0.274,0.003,0.546,0,0.818l-0.052-0.001v17.545c0.077-0.284,0.151-0.569,0.237-0.849
					c1.053-3.435,2.847-6.692,5.187-9.419c0.844-0.979,1.743-1.871,2.613-2.734c0.353-0.35,0.705-0.699,1.055-1.056l0.553-0.553
					c1.424-1.429,2.419-3.449,3.571-5.788c1.355-2.752,2.892-5.872,5.625-9.287c3.752-4.687,7.608-6.496,9.965-6.626
					c1.05-0.049,1.909,0.201,2.46,0.753c1.992,1.991-0.083,8.521-5.838,14.278c-3.916,3.916-8.747,5.266-11.944,6.159
					c-1.476,0.412-2.751,0.769-3.176,1.194l0-0.001l-0.54,0.54c-0.351,0.357-0.705,0.709-1.061,1.062
					c-0.857,0.849-1.742,1.728-2.561,2.678c-2.256,2.628-3.984,5.768-4.999,9.08c-0.505,1.641-0.843,3.361-1.002,5.113
					c-0.121,1.282-0.115,2.567-0.109,3.812c0.002,0.466,0.005,0.93,0,1.393l-0.034,0v8.425c0.749-2.192,1.909-4.267,3.413-6.02
					c0.588-0.681,1.203-1.292,1.798-1.881c0.241-0.24,0.482-0.478,0.723-0.724l0.37-0.37c0.935-0.934,1.444-2.455,2.034-4.216
					c0.674-2.011,1.512-4.513,3.29-6.981c1.751-2.431,4.076-3.932,6.379-4.117c1.325-0.104,2.524,0.262,3.273,1.011
					c0.953,0.953,1.269,2.754,0.845,4.819c-0.463,2.253-1.74,4.516-3.596,6.371c-2.734,2.734-6.628,3.107-9.206,3.353
					c-0.992,0.096-2.116,0.203-2.346,0.432l-0.368,0.368c-0.24,0.245-0.484,0.486-0.729,0.73c-0.582,0.577-1.184,1.174-1.746,1.826
					c-1.542,1.796-2.723,3.943-3.419,6.209c-0.344,1.119-0.576,2.295-0.685,3.496c-0.008,0.083-0.007,0.166-0.013,0.249
					c0.022,0.573,0.03,1.151,0.028,1.718c-0.002,0.313-0.003,0.628,0,0.944l-0.046,0v9.35h-0.951v-8.713l-0.045,0
					c0.003-0.312,0.002-0.626,0-0.941c-0.003-0.666,0.007-1.355,0.045-2.053v-0.616c-0.009-0.156-0.01-0.315-0.025-0.469
					c-0.102-1.117-0.316-2.214-0.64-3.26c-0.647-2.113-1.749-4.114-3.186-5.787c-0.509-0.593-1.08-1.16-1.685-1.76
					c-0.244-0.242-0.489-0.485-0.727-0.728l-0.37-0.37c-0.934-0.934-2.455-1.443-4.216-2.033c-2.01-0.674-4.514-1.512-6.982-3.29
					c-2.431-1.751-3.932-4.077-4.117-6.38c-0.108-1.331,0.261-2.524,1.011-3.273c1.951-1.951,7.264-1.174,11.19,2.751
					c2.733,2.734,3.106,6.627,3.353,9.204c0.095,0.993,0.202,2.118,0.433,2.348l0.373,0.373c0.239,0.242,0.48,0.483,0.721,0.722
					c0.591,0.587,1.203,1.194,1.736,1.815c1.368,1.593,2.428,3.473,3.13,5.458v-6.469l-0.033,0c-0.004-0.465-0.002-0.931,0-1.394
					c0.006-1.286,0.01-2.502-0.105-3.706c-0.151-1.666-0.472-3.306-0.955-4.875c-0.969-3.159-2.618-6.153-4.767-8.657
					c-0.767-0.892-1.649-1.767-2.502-2.614c-0.355-0.353-0.71-0.705-1.057-1.058l-0.543-0.543l-0.001,0.001
					c-1.429-1.429-3.454-2.426-5.798-3.582c-2.752-1.355-5.872-2.892-9.287-5.625c-4.687-3.752-6.496-7.607-6.626-9.965
					C74.706,282.702,74.967,281.851,75.517,281.301z"/>
			</g>
		</g>
		<g>
			<g>
				<circle style="fill:#0869A6;" cx="558.032" cy="130.205" r="37.619"/>
				
					<ellipse transform="matrix(0.2672 -0.9636 0.9636 0.2672 283.4392 633.1478)" style="fill:#EBF5F8;" cx="558.032" cy="130.205" rx="29.586" ry="29.586"/>
				<path style="fill:#E3F2F5;" d="M558.032,100.619c-16.34,0-29.586,13.246-29.586,29.586c0,5.668,1.596,10.962,4.361,15.462
					c12.303-12.302,27.677-27.693,40.665-40.701C568.977,102.21,563.691,100.619,558.032,100.619z"/>
				<g>
					<g>
						<path style="fill:#0869A6;" d="M557.882,132.357c-0.24-2.12-0.398-4.24-0.6-6.36c-0.175-2.12-0.325-4.24-0.45-6.36
							c-0.13-2.12-0.52-4.24-0.3-6.36c0.202-2.12,0.522-4.24,1.35-6.36h0.3c0.828,2.12,1.148,4.24,1.35,6.36
							c0.22,2.12-0.17,4.24-0.3,6.36c-0.125,2.12-0.275,4.24-0.45,6.36c-0.202,2.12-0.36,4.24-0.6,6.36H557.882z"/>
					</g>
					<g>
						<path style="fill:#0869A6;" d="M559.568,128.517c-0.856,1.459-1.775,2.867-2.66,4.302c-0.906,1.419-1.832,2.822-2.778,4.209
							c-0.944,1.389-1.678,2.944-2.895,4.115c-0.592,0.599-1.22,1.169-1.913,1.687c-0.685,0.525-1.415,1.013-2.273,1.4l-0.235-0.187
							c0.185-0.923,0.498-1.743,0.857-2.528c0.351-0.791,0.766-1.531,1.217-2.241c0.87-1.448,2.221-2.511,3.364-3.742
							c1.141-1.232,2.301-2.448,3.482-3.648c1.201-1.184,2.368-2.394,3.599-3.555L559.568,128.517z"/>
					</g>
				</g>
			</g>
			<g>
				<rect x="227.568" y="110.319" style="fill:#0869A6;" width="173.154" height="39.771"/>
				<rect x="232.199" y="114.952" style="fill:#072359;" width="163.89" height="30.505"/>
				<polygon style="fill:#EBF5F8;" points="395.116,144.484 233.173,143.512 234.145,115.925 394.143,116.898 				"/>
				<g>
					
						<text transform="matrix(1 0 0 1 269.9937 136.0282)" style="fill:#0388A6; font-family:'OpenSans-Semibold'; font-size:15.5671px;">job interview</text>
					<path style="fill:#0388A6;" d="M242.359,130.205l6.946,6.496v-3.55c0,0,12.83,0,13.769,0v-5.892c-0.939,0-13.769,0-13.769,0
						v-3.55L242.359,130.205z"/>
				</g>
				<polygon style="fill:#E3F2F5;" points="234.145,115.925 233.173,143.512 234.141,143.517 261.566,116.092 				"/>
			</g>
		</g>
	</g>
</g>
</svg>
